<svg xmlns="http://www.w3.org/2000/svg" version="1.0" width="148.000000pt" height="180.000000pt" viewBox="0 0 148.000000 180.000000" preserveAspectRatio="xMidYMid meet">
<metadata fill="#bfedec">
Created by potrace 1.10, written by Peter Selinger 2001-2011
</metadata>
<g transform="translate(0.000000,180.000000) scale(0.100000,-0.100000)" fill="#bfedec" stroke="none">
<path d="M450 1030 l0 -770 33 0 32 0 0 398 0 398 417 179 c230 98 417 179 415 180 -2 2 -763 329 -864 372 l-33 13 0 -770z m228 629 c92 -39 217 -93 277 -119 61 -26 145 -63 189 -81 43 -19 78 -38 78 -44 0 -7 -711 -324 -729 -325 -6 0 -2 627 4 633 9 10 -1 14 181 -64z" fill="#bfedec"/>
<path d="M870 984 c0 -17 -6 -28 -20 -31 -23 -6 -27 -33 -5 -33 12 0 15 -18 15 -104 0 -119 8 -136 66 -136 27 0 34 4 34 19 0 14 -8 21 -27 23 l-28 3 -3 98 -3 97 31 0 c20 0 30 5 30 15 0 10 -10 15 -31 15 -29 0 -30 2 -24 30 6 26 4 30 -14 30 -16 0 -21 -6 -21 -26z" fill="#bfedec"/>
<path d="M73 938 c3 -7 20 -68 38 -135 33 -118 35 -123 61 -123 26 0 27 4 54 118 l27 117 26 -115 c25 -109 28 -115 53 -118 18 -2 28 2 32 15 18 60 66 238 66 245 0 4 -8 8 -19 8 -16 0 -23 -19 -48 -117 l-29 -118 -28 118 c-26 109 -29 117 -51 117 -26 0 -26 -1 -59 -135 -8 -33 -17 -69 -19 -80 -5 -27 -10 -12 -38 113 -21 95 -24 102 -46 102 -16 0 -23 -5 -20 -12z" fill="#bfedec"/>
<path d="M580 815 c0 -133 0 -135 23 -135 21 0 22 3 19 84 -3 61 1 92 12 114 27 52 98 50 112 -2 3 -13 4 -62 2 -110 -3 -84 -2 -86 20 -86 21 0 22 3 22 110 0 104 -1 112 -25 135 -33 34 -87 34 -120 0 l-25 -24 0 24 c0 18 -5 25 -20 25 -19 0 -20 -7 -20 -135z" fill="#bfedec"/>
<path d="M1039 935 c-72 -39 -71 -203 2 -240 65 -34 169 -2 169 51 0 11 -35 2 -57 -16 -14 -11 -37 -20 -50 -20 -32 0 -73 42 -73 75 l0 26 96 -3 96 -3 -7 40 c-11 73 -48 105 -118 105 -18 -1 -44 -7 -58 -15z m105 -36 c14 -11 26 -29 26 -40 0 -17 -8 -19 -70 -19 -79 0 -89 12 -45 55 30 30 54 31 89 4z" fill="#bfedec"/>
<path d="M1270 815 l0 -135 25 0 c25 0 25 0 25 93 0 103 14 137 56 137 17 0 24 5 24 20 0 34 -46 26 -71 -12 l-21 -33 4 33 c4 28 2 32 -19 32 -23 0 -23 0 -23 -135z" fill="#bfedec"/>
<path d="M608 574 l-28 -5 0 -100 c0 -99 0 -101 30 -126 91 -76 -38 -177 -181 -143 -60 15 -109 55 -109 90 0 13 15 36 35 54 35 32 35 34 35 114 0 98 6 96 -132 49 -172 -60 -253 -129 -253 -218 0 -38 6 -55 30 -84 80 -99 299 -177 555 -198 l54 -4 -26 22 c-19 16 -44 24 -95 28 -94 9 -243 48 -323 84 -69 31 -126 76 -161 125 l-21 29 37 45 c47 56 98 89 196 125 67 24 79 26 89 13 17 -20 6 -82 -19 -108 -35 -37 -45 -80 -27 -114 64 -123 293 -135 365 -19 29 47 26 76 -9 123 -25 33 -29 48 -30 101 0 85 7 88 175 80 162 -8 294 -30 410 -68 108 -36 171 -75 220 -135 l37 -44 -33 -41 c-45 -58 -98 -93 -188 -128 -83 -32 -256 -71 -315 -71 -23 0 -45 -8 -63 -24 l-28 -25 45 5 c197 21 313 47 418 95 162 73 219 175 151 270 -53 75 -230 153 -420 184 -94 16 -370 28 -421 19z" fill="#bfedec"/>
<path d="M954 419 c-37 -11 -94 -71 -94 -99 0 -11 15 -37 33 -57 29 -31 41 -37 89 -41 38 -3 64 1 86 12 33 17 62 61 62 95 0 34 -46 78 -94 90 -25 6 -46 11 -48 10 -2 0 -17 -5 -34 -10z m114 -55 c34 -22 30 -69 -8 -89 -42 -22 -102 -19 -134 6 -81 63 50 140 142 83z" fill="#bfedec"/>
</g>
</svg>